<svg version="1.2" xmlns="http://www.w3.org/2000/svg" viewBox="0 0 1403 331" width="1403" height="331">
	<defs>
		<linearGradient id="g1" x2="1" gradientUnits="userSpaceOnUse" gradientTransform="matrix(33.099,0,0,34.022,645.944,299)">
			<stop offset="0" stop-color="#012340"/>
			<stop offset="1" stop-color="#049dd9"/>
		</linearGradient>
		<linearGradient id="g2" x2="1" gradientUnits="userSpaceOnUse" gradientTransform="matrix(562,0,0,34.03,67.5,298.972)">
			<stop offset="0" stop-color="#049dd9"/>
			<stop offset="1" stop-color="#012340"/>
		</linearGradient>
		<linearGradient id="g3" x2="1" gradientUnits="userSpaceOnUse" gradientTransform="matrix(1367.116,0,0,224.981,14.876,121.51)">
			<stop offset="0" stop-color="#012340"/>
			<stop offset="1" stop-color="#049dd9"/>
		</linearGradient>
	</defs>
	<style>
		.s0 { fill: url(#g1) } 
		.s1 { fill: url(#g2) } 
		.s2 { fill: url(#g3) } 
	</style>
	<path id="Preencher com Gradiente 3" class="s0" d="m655.04 284.26c-2.46 1.23-5.51 3.81-6.78 5.74-1.72 2.59-2.32 4.93-2.32 9 0 4.07 0.6 6.41 2.32 9 1.27 1.93 4.32 4.51 6.78 5.74 2.45 1.23 5.81 2.25 7.46 2.27 1.65 0.02 4.98-0.99 7.4-2.24 3.12-1.61 5.1-3.58 6.78-6.77 1.3-2.48 2.36-6.07 2.36-8 0-1.93-1.06-5.52-2.36-8-1.68-3.19-3.66-5.16-6.78-6.77-2.42-1.25-5.75-2.26-7.4-2.24-1.65 0.02-5.01 1.04-7.46 2.27z"/>
	<path id="Preencher com Gradiente 2" class="s1" d="m77.1 283.77c-1.88 0.95-4.47 2.97-5.75 4.48-1.29 1.51-2.8 4.55-3.35 6.75q-1 4 0 8c0.55 2.2 2.05 5.24 3.34 6.75 1.29 1.51 3.99 3.54 6 4.5 3.46 1.65 18.45 1.75 271.41 1.74l267.75-0.02c6.83-3.46 9.76-5.82 10.91-7.47 1.61-2.31 2.09-4.53 2.09-9.68 0-5.24-0.45-7.28-2.12-9.5-1.16-1.55-4.09-3.84-6.5-5.09l-4.38-2.27c-519.86 0.08-536.21 0.19-539.4 1.81z"/>
	<path id="Preencher com Gradiente 1" fill-rule="evenodd" class="s2" d="m522.25 9.02c18.55 0.02 19.33 0.1 21.53 2.25 2.27 2.23 2.27 2.29 2.25 32.98-0.02 19.85 0.32 30.75 0.97 30.75 0.55 0 3.36-1.31 6.25-2.91 2.89-1.6 7.5-3.67 10.25-4.58 2.75-0.92 8.6-2.31 13-3.09 4.4-0.78 10.48-1.42 13.5-1.42 3.02-0.01 8.2 0.47 11.5 1.07 3.3 0.59 8.02 1.75 10.5 2.58 2.48 0.82 5.85 2.34 7.5 3.36 1.65 1.03 5.09 4.04 7.65 6.68 2.56 2.65 5.8 7.06 7.21 9.81 1.41 2.75 3.26 7.7 4.13 11 0.86 3.3 2.02 10.5 2.58 16 0.59 5.84 0.89 31.95 0.72 62.71-0.28 51.36-0.34 52.74-2.29 54.22-1.62 1.22-5.66 1.52-21 1.56-14.98 0.03-19.42-0.26-21-1.39-1.95-1.4-2.01-2.88-2.5-58.77-0.49-55.9-0.55-57.43-2.61-61.33q-2.11-4-6.5-6.27c-3.28-1.7-6.04-2.26-10.89-2.24-3.58 0.02-8.52 0.64-11 1.38-2.48 0.74-7.54 2.76-18 7.63v58.5c0 57.17-0.05 58.55-2 60.5-1.86 1.86-3.33 2-21.5 2-18.17 0-19.64-0.14-21.5-2-1.98-1.98-2-3.33-2-109.5 0-106.17 0.02-107.52 2-109.5 1.86-1.86 3.32-2 21.25-1.98zm230.25 6.44c12.1 0.23 27.17 1.12 33.5 1.98 6.33 0.86 13.75 1.96 16.5 2.43 2.75 0.48 6.01 1.38 7.25 2 2.21 1.11 2.25 1.46 2.25 19.13 0 17.84-0.02 18-2.25 18.53-1.24 0.28-9.23 0.03-17.75-0.57-8.52-0.6-24.05-1.35-34.5-1.66-15.67-0.47-19.88-0.3-24 1-2.91 0.92-6.15 2.86-7.75 4.64-1.51 1.68-3.02 4.52-3.36 6.31-0.34 1.79-0.11 4.94 0.5 7 0.61 2.06 2.71 5.21 4.66 7 1.94 1.79 5.88 4.55 8.75 6.14 2.86 1.58 12.4 6.69 21.2 11.35 8.8 4.66 18.48 9.84 21.5 11.51 3.02 1.67 7.96 4.66 10.96 6.64 3 1.99 7.88 5.86 10.85 8.61 2.97 2.75 7.07 7.7 9.12 11 2.05 3.3 4.06 6.9 4.49 8 0.42 1.1 1.4 4.36 2.17 7.25 0.81 3.01 1.41 9.95 1.41 16.25 0 6.55-0.61 13.33-1.5 16.75-0.82 3.16-2.92 8.68-4.67 12.25-2.1 4.31-5.55 8.88-10.25 13.56-3.89 3.88-9.1 8.19-11.58 9.56-2.48 1.38-7.09 3.49-10.25 4.69-3.16 1.21-7.66 2.65-10 3.22-2.34 0.57-8.52 1.68-13.75 2.47-5.23 0.79-13.1 1.45-17.5 1.47-4.4 0.02-12.95-0.43-19-1-6.05-0.57-15.05-1.7-20-2.5-4.95-0.8-11.36-2.13-14.25-2.96-3.91-1.12-5.51-2.15-6.25-4.01-0.55-1.37-1.02-8.91-1.04-16.75-0.04-12.22 0.21-14.58 3.54-18.85l14 1.09c7.7 0.6 23.23 1.38 55 2.37l5.5-2.58c4.52-2.13 5.9-3.41 7.75-7.19 1.42-2.9 2.25-6.43 2.25-9.59 0-2.75-0.62-6.24-1.37-7.75-0.75-1.51-3.56-4.59-6.25-6.83-2.68-2.24-11.4-7.92-19.38-12.61-7.98-4.69-19.9-11.69-26.5-15.56-6.6-3.87-14.54-9-17.65-11.39-3.11-2.4-7.99-7.28-10.86-10.86-2.86-3.57-5.77-7.85-6.48-9.5-0.7-1.65-1.76-4.35-2.35-6-0.59-1.65-1.55-5.7-2.12-9-0.58-3.3-1.05-8.47-1.04-11.5 0.01-3.02 0.51-8.42 1.11-12 0.6-3.57 2.58-9.65 4.4-13.5 2.07-4.38 5.36-9.06 8.78-12.5 3.44-3.47 8.18-6.83 12.83-9.11 4.06-1.99 9.4-4.15 11.88-4.81 2.48-0.65 7.87-1.83 12-2.61 5.54-1.05 13.25-1.31 29.5-1.01zm-734.4 1.54l75.2-0.02c59.37-0.01 75.47 0.25 76.47 1.25 0.92 0.93 1.27 5.99 1.27 18.77 0.01 17.18-0.03 17.52-2.26 18.75-1.61 0.89-9.32 1.33-50.28 1.75l-0.5 86.29c-0.44 75.24-0.69 86.4-2 87.23-0.82 0.52-10.95 0.97-22.5 1-18.87 0.04-21.17-0.14-22.72-1.74-1.6-1.65-1.74-7.98-2.28-172.78l-25.33-0.5c-23.88-0.47-25.42-0.61-26.77-2.5-1.09-1.52-1.45-5.74-1.51-17.53-0.07-12.93 0.19-15.9 1.56-17.75zm866.38 12.32c4.21 0.15 5.17 0.57 6.24 2.68 0.84 1.68 1.26 7.51 1.28 33l20.75-0.01c15.21-0.02 21.21 0.32 22.46 1.25 1.46 1.08 1.73 3.33 1.86 15.26 0.08 7.7-0.12 14.68-0.44 15.5-0.32 0.83-1.6 1.83-2.85 2.24-1.25 0.4-11.16 0.74-41.78 0.76v92l2.25 2.64c1.76 2.06 3.57 2.81 8.25 3.41 3.3 0.43 11.97 0.82 19.25 0.87 12.21 0.08 13.33 0.24 14.25 2.08 0.55 1.1 1 7.63 1 14.5 0 11.85-0.11 12.58-2.25 14.01-1.31 0.87-7.68 2.12-15.25 2.99-7.15 0.81-16.82 1.49-21.5 1.49-4.67 0-12.32-0.61-17-1.35-4.67-0.75-11.37-2.66-14.88-4.25-3.89-1.76-7.91-4.55-10.25-7.14-2.13-2.33-4.6-5.71-5.5-7.5-0.9-1.78-2.35-5.27-3.21-7.75-1.37-3.92-1.61-15.03-1.86-86.25-0.26-71.59-0.11-81.93 1.2-83.25 0.83-0.82 3.87-1.9 6.75-2.4 2.89-0.5 8.63-1.46 12.75-2.13 4.13-0.67 8.85-1.58 10.5-2.02 1.65-0.45 5.24-0.73 7.98-0.63zm-627.48 33.81c3.58-0.07 10.1 0.51 14.5 1.29 4.4 0.78 10.25 2.17 13 3.09 2.75 0.92 7.48 2.87 10.5 4.33 3.02 1.46 8.36 5.36 11.87 8.66 3.51 3.3 7.88 8.25 9.71 11 1.83 2.75 4.47 7.82 5.88 11.25 1.4 3.44 3.44 10.08 4.54 14.75 1.59 6.76 2.01 12.05 2.02 25.75 0.01 12.22-0.34 17.62-1.2 18.5-0.94 0.97-11.82 1.25-47.77 1.24-35.99-0.02-46.95 0.27-48.33 1.25-1.64 1.17-1.68 1.76-0.41 7.76 0.75 3.58 2.06 7.85 2.91 9.5 0.85 1.65 3.4 4.69 5.66 6.75 2.51 2.29 6.18 4.34 9.37 5.26 3.7 1.07 9.98 1.51 21.25 1.51 8.8 0.01 23.58-0.56 32.84-1.26 16.44-1.23 16.87-1.21 18.27 0.74 1.05 1.48 1.42 5.16 1.4 14-0.02 6.6-0.36 13.02-0.77 14.27-0.4 1.25-1.86 2.7-3.24 3.22-1.37 0.53-5.65 1.61-9.5 2.4-3.85 0.8-9.7 1.93-13 2.53-3.3 0.59-10.38 1.53-15.75 2.08-5.36 0.55-14.02 1-19.25 1-5.22 0-12.76-0.48-16.75-1.08-3.98-0.59-9.72-1.77-12.75-2.61-3.02-0.85-9.08-3.4-13.46-5.67-4.38-2.28-10.41-6.39-13.39-9.14-2.97-2.75-7.03-7.47-9.01-10.5-1.98-3.02-4.81-8.65-6.29-12.5-1.49-3.85-3.41-11.38-4.27-16.75-0.94-5.77-1.58-15.96-1.58-25-0.01-8.48 0.66-19.68 1.49-25.25 0.83-5.5 2.62-13.37 3.98-17.5 1.36-4.12 4.37-10.42 6.67-14 2.31-3.57 6.26-8.56 8.78-11.08 2.52-2.52 7.28-6.3 10.58-8.41 3.3-2.11 9.15-4.94 13-6.28 3.85-1.34 10.38-3.01 14.5-3.71 4.13-0.7 10.43-1.33 14-1.39zm167-0.03c4.68-0.06 12.33 0.35 17 0.91 4.68 0.57 10.98 1.51 14 2.1 3.03 0.59 6.52 1.25 7.75 1.48 1.24 0.23 3.15 1.31 4.25 2.41 1.81 1.8 2 3.34 2 15.5 0 7.43-0.38 14.52-0.85 15.75-0.47 1.24-1.71 2.5-2.75 2.8-1.04 0.3-9.32-0.04-18.4-0.74-9.07-0.7-18.52-1.03-21-0.71-2.47 0.31-6.3 1.36-8.5 2.32-2.2 0.96-5.37 3.29-7.05 5.17-1.68 1.87-3.93 5.89-5 8.91-1.72 4.87-1.95 8.27-1.95 29.5 0 21.19 0.23 24.65 1.94 29.5 1.07 3.03 3.54 7.22 5.5 9.31 1.96 2.1 5.59 4.56 8.06 5.48 2.51 0.93 7.39 1.67 11 1.67 3.58 0 13.34-0.44 36.87-1.96l1.07 2.75c0.58 1.52 1.06 8.83 1.06 16.25 0 12.17-0.19 13.7-2 15.5-1.1 1.1-3.23 2.25-4.75 2.56-1.51 0.31-3.65 0.77-4.75 1.02-1.1 0.25-7.17 1.12-13.5 1.93-6.32 0.81-14.87 1.48-19 1.48-4.12 0.01-10.87-0.65-15-1.45-4.12-0.81-8.85-1.88-10.5-2.37-1.65-0.5-5.25-1.95-8-3.22-2.75-1.28-7.67-4.37-10.94-6.88-3.28-2.51-7.9-7.27-10.28-10.57-2.37-3.3-5.72-9.37-7.43-13.5-1.76-4.22-3.93-12.3-4.98-18.5-1.32-7.84-1.86-16.09-1.86-28.75 0-10.92 0.58-21.5 1.51-27.5 0.83-5.36 2.73-13.12 4.22-17.25 1.48-4.12 4.85-10.76 7.48-14.75 2.81-4.26 7.15-9.12 10.53-11.79 3.17-2.5 8.45-5.8 11.75-7.35 3.3-1.54 8.25-3.31 11-3.94 2.75-0.62 6.8-1.54 9-2.05 2.2-0.5 7.83-0.96 12.5-1.02zm603.5 0.02c3.3-0.07 10.28 0.51 15.5 1.3 5.23 0.78 11.75 2.17 14.5 3.09 2.75 0.92 7.7 3.16 11 4.98 3.3 1.81 8.43 5.49 11.4 8.16 2.97 2.67 7.09 7.33 9.14 10.35 2.06 3.03 4.91 8.43 6.33 12 1.43 3.58 3.27 9.43 4.1 13 1.13 4.91 1.5 12.88 1.5 32.5 0 19.62-0.37 27.6-1.5 32.5-0.83 3.58-2.67 9.43-4.1 13-1.42 3.58-4.29 8.98-6.36 12-2.08 3.03-5.97 7.58-8.64 10.13-2.68 2.54-8.24 6.44-12.37 8.65-4.12 2.21-9.97 4.71-13 5.54-3.02 0.84-8.76 2.01-12.75 2.6-3.98 0.6-10.06 1.07-13.5 1.06-3.43-0.01-9.85-0.67-14.25-1.47-4.4-0.8-9.8-1.96-12-2.59-2.2-0.62-6.7-2.47-10-4.1-3.3-1.63-8.36-4.73-11.25-6.89-2.88-2.16-6.99-6.29-9.12-9.18-2.13-2.88-5-7.27-6.37-9.75-1.37-2.47-3.79-8.55-8.26-22.5v-58l2.89-9c1.58-4.95 4-11.02 5.37-13.5 1.37-2.47 4.35-6.91 6.62-9.85 2.27-2.95 6.37-7.06 9.12-9.14 2.75-2.08 7.7-5.14 11-6.79 3.3-1.65 8.03-3.57 10.5-4.26 2.48-0.7 7.65-1.82 11.5-2.49 3.85-0.67 9.7-1.28 13-1.35zm178.6 0.22c6.93 0.12 10.07 0.58 11.3 1.66 1.47 1.3 1.69 3.73 1.65 18.25-0.03 12.3-0.38 16.95-1.3 17.49-0.68 0.4-8.45 1.02-17.25 1.38-8.8 0.35-17.23 1.14-21.5 2.88l-0.02 61.75c-0.02 57.09-0.16 61.89-1.75 63.54-1.54 1.58-3.79 1.77-20.73 1.75-15.24-0.02-19.44-0.32-23.5-3.04l-0.03-75.75c-0.03-71.38 0.07-75.85 1.75-77.47 0.98-0.95 4.26-2.67 7.28-3.83 3.03-1.16 7.53-2.53 10-3.05 2.48-0.51 7.2-1.4 10.5-1.97 3.3-0.58 12.3-1.66 20-2.4 7.7-0.75 18.32-1.28 23.6-1.19zm102.9-0.19c3.58-0.08 10.33 0.49 15 1.26 4.68 0.77 10.75 2.16 13.5 3.09 2.75 0.93 7.93 3.31 11.5 5.3 3.58 1.99 9.2 6.36 12.5 9.71 3.3 3.35 7.58 8.77 9.5 12.05 1.92 3.27 4.56 9.09 5.86 12.94 1.3 3.85 2.99 11.05 3.75 16 0.76 4.95 1.38 15.19 1.39 22.75 0 11.21-0.29 14.03-1.57 15.25-1.35 1.29-8.13 1.5-48.25 1.52-26.92 0.01-47.31 0.41-48.18 0.94-1.2 0.75-1.34 1.97-0.68 6.24 0.45 2.91 1.6 7.1 2.56 9.3 0.97 2.2 3.3 5.6 5.19 7.54 1.96 2.02 6.01 4.53 9.43 5.85 5.81 2.22 6.71 2.28 28.5 1.72 12.38-0.32 27.45-0.87 44.5-1.86l1.42 3.37c1.04 2.49 1.31 6.47 1 15.09-0.31 8.6-0.81 12.13-1.92 13.29-0.82 0.86-4.2 2.22-7.5 3.02-3.3 0.8-10.05 2.11-15 2.93-4.95 0.81-13.05 1.94-18 2.51-4.95 0.57-13.72 1.04-19.5 1.04-5.77 0-14.1-0.65-18.5-1.44-4.4-0.8-10.47-2.19-13.5-3.11-3.02-0.92-8.2-3.05-11.5-4.75-3.72-1.91-9.06-6.14-14.06-11.14-4.43-4.43-9.09-10.08-10.36-12.56-1.26-2.47-3.1-6.75-4.07-9.5-0.98-2.75-2.39-7.25-3.14-10-1-3.65-1.36-12.26-1.35-32 0.02-25.1 0.18-27.56 2.31-35 1.26-4.4 3.3-10.25 4.54-13 1.24-2.75 3.64-7.02 5.33-9.5 1.7-2.47 5.05-6.49 7.45-8.93 2.39-2.43 7.28-6.32 10.85-8.62 3.58-2.31 10.1-5.34 14.5-6.73 4.4-1.39 10.7-2.96 14-3.48 3.3-0.52 8.93-1.01 12.5-1.09zm-1062.92 40.15c-2.43 1.21-5.7 3.55-7.27 5.2-1.57 1.65-3.7 4.8-4.72 7-1.02 2.2-2.33 7.15-2.91 11-0.59 3.85-0.86 7.34-0.62 7.75 0.24 0.42 12.48 0.76 27.19 0.76l26.75 0.01c-1.16-11.64-2.04-16.25-2.7-17.77-0.67-1.51-2.39-4.55-3.83-6.75-1.71-2.59-4.53-4.97-8.05-6.76-4.45-2.27-6.67-2.75-12.42-2.7-5.11 0.05-8.19 0.66-11.42 2.26zm1052.92-0.21c-2.47 1.13-5.34 2.8-6.38 3.73-1.03 0.92-2.94 3.37-4.25 5.43-1.3 2.07-3.04 6.34-3.87 9.5-0.83 3.17-1.5 7.44-1.5 9.5v3.75c43.17 0 53.19-0.37 53.5-1 0.28-0.55 0-4.26-0.61-8.25-0.61-3.98-2.14-9.27-3.41-11.75-1.26-2.47-3.57-5.67-5.13-7.1-1.57-1.43-4.76-3.34-7.1-4.25-2.36-0.92-7.02-1.64-10.5-1.63-4.12 0.02-7.78 0.72-10.75 2.07zm-278 1.17c-1.92 0.71-5.03 2.41-6.9 3.77-1.88 1.36-4.21 3.6-5.18 4.97-0.98 1.38-2.49 4.53-3.37 7-0.89 2.48-2.12 9.9-2.75 16.5-0.88 9.11-0.87 14.9 0.02 24 0.65 6.6 1.9 14.03 2.78 16.5 0.87 2.48 2.56 5.82 3.75 7.43 1.18 1.61 3.71 4.09 5.62 5.5 1.9 1.42 5.95 3.11 9 3.77 4.12 0.9 6.81 0.93 10.53 0.11 2.75-0.6 6.58-2.13 8.5-3.4 1.93-1.27 4.44-3.57 5.59-5.11 1.15-1.54 3.14-5.5 4.41-8.8 2.17-5.61 2.32-7.4 2.33-28 0.02-20.68-0.12-22.36-2.31-28-1.29-3.3-3.28-7.28-4.43-8.85-1.15-1.56-3.89-3.92-6.09-5.24-2.81-1.69-6.08-2.56-11-2.93-4.51-0.33-8.24-0.06-10.5 0.78z"/>
</svg>