<svg version="1.2" xmlns="http://www.w3.org/2000/svg" viewBox="0 0 2857 533" width="268" height="50">
	<defs>
		<linearGradient id="g1" x2="1" gradientUnits="userSpaceOnUse" gradientTransform="matrix(2815.276,0,0,461.371,22,267.892)">
			<stop offset="-0.021" stop-color="#000000"/>
			<stop offset="0" stop-color="#012340"/>
			<stop offset="1" stop-color="#049dd9"/>
		</linearGradient>
	</defs>
	<style>
		.s0 { fill: url(#g1) } 
	</style>
	<path id="Preencher com Gradiente 1" fill-rule="evenodd" class="s0" d="m1002.3 37.25c34.72 0.2 44.15 0.52 43.95 1.5-0.14 0.69 0.54 1.67 1.5 2.18 1.65 0.88 1.59 1.72-0.94 14.25-1.47 7.33-3.81 18.49-5.19 24.82-1.37 6.33-3.83 17.35-5.47 24.5-1.63 7.15-5.25 23.35-8.04 36-2.78 12.65-6.67 29.75-8.63 38-2.38 10.03-3.23 15.33-2.56 16q1 1 11.29-3.11c5.66-2.26 12.99-4.89 16.29-5.85 3.3-0.95 9.38-2.33 13.5-3.05 4.13-0.73 15.6-1.89 25.5-2.58 14.05-0.99 21.07-1.01 32-0.1 7.7 0.65 17.82 2.13 22.5 3.3 4.68 1.17 11.65 3.59 15.5 5.38 3.85 1.79 9.41 5.45 12.36 8.13 2.95 2.69 6.62 7.13 8.17 9.88 1.54 2.75 3.75 7.47 4.89 10.5 1.15 3.03 2.59 9.55 3.2 14.5 0.62 4.96 0.83 13.04 0.48 18-0.35 4.95-1.5 12.83-2.56 17.5-1.06 4.67-3.05 13.67-4.42 20-1.37 6.33-3.88 18.7-5.58 27.5-1.71 8.8-4.2 20.72-5.54 26.5-1.35 5.78-5.64 25.12-9.53 43-3.9 17.87-8.41 38.8-10.03 46.5-1.63 7.7-3.61 17.15-4.4 21-0.8 3.85-2.83 13.97-4.52 22.5-1.7 8.53-3.42 17.07-4.6 22.5l-90.42 0.5v-2.25c0-1.24 0.65-5.63 1.44-9.75 0.79-4.13 2.39-11.78 3.56-17 1.16-5.22 3.41-14.9 4.99-21.5 1.58-6.6 6.76-31.35 11.5-55 4.75-23.65 10.19-49.75 12.09-58 1.9-8.25 4.55-19.72 5.88-25.5 1.33-5.78 3.35-15.22 4.49-21 1.15-5.78 2.07-12.19 2.06-14.25-0.01-2.55-1.21-5.72-3.76-9.91-2.06-3.39-4.65-6.71-5.75-7.39-1.42-0.86-12.47-1.4-38-1.86-28.61-0.52-36.25-0.39-37.22 0.63-0.66 0.7-2.34 7.58-3.71 15.28-1.38 7.7-3.6 19.63-4.94 26.5-1.35 6.87-4.48 22.4-6.96 34.5-2.48 12.1-6.37 31.22-8.64 42.5-2.27 11.28-5.74 27.7-7.72 36.5-1.97 8.8-4.84 21.85-6.36 29-1.51 7.15-4.15 19.07-5.86 26.5-1.71 7.43-4.14 17.55-7.72 31.5l-89.87 0.55 0.77-5.78c0.42-3.17 2.58-14.55 4.8-25.27 2.22-10.72 5.15-25.35 6.51-32.5 1.37-7.15 3.42-17.28 4.56-22.5 1.14-5.22 3.13-13.78 4.41-19 1.28-5.22 3.3-14.67 4.49-21 1.2-6.33 3.94-19.38 6.1-29 2.16-9.63 5.08-22.9 6.49-29.5 1.41-6.6 3.83-18.3 5.37-26 1.54-7.7 4.17-20.97 5.85-29.5 1.67-8.53 4.66-23.6 6.65-33.5 1.99-9.9 5.57-27 7.97-38 2.39-11 4.79-22.03 5.32-24.5 0.54-2.47 4.4-20.47 8.6-40 4.19-19.53 8.51-39.55 9.59-44.5 1.09-4.95 2.89-14.17 4-20.5 1.12-6.33 2.03-11.61 2.03-11.75-0.01-0.14 0.33-0.2 0.74-0.13 0.41 0.06 1.31 0.06 2 0 0.77-0.07 1.1-1.17 0.87-2.87-0.21-1.51-0.19-3.09 0.05-3.5 0.24-0.42 20.32-0.64 44.63-0.5zm465.2 12.96c52-0.09 88.61 0.23 89.5 0.78 1.33 0.81 1.3 1.87-0.23 9.21-0.96 4.57-3.06 13.7-4.67 20.3-1.61 6.6-3.87 15.83-5.01 20.5-1.14 4.67-3.58 14.8-8.77 36.5l-79.41 0.78c-73.55 0.72-80.07 0.92-88.41 2.74-4.95 1.09-11.25 3.09-14 4.45-2.75 1.36-7.25 4.44-10 6.83-2.75 2.4-6.44 6.57-8.2 9.28-1.77 2.71-4.14 7.84-5.27 11.42-1.14 3.58-2.07 8.75-2.07 11.5 0 3.49 0.88 6.81 2.92 11 1.63 3.34 4.89 7.77 7.36 10 2.44 2.2 7.09 5.43 10.35 7.17 3.25 1.74 11.09 5.27 17.41 7.84 6.32 2.57 17.8 6.91 25.5 9.65 7.7 2.74 19.63 7 26.5 9.48 6.88 2.48 17.9 6.76 24.5 9.52 6.6 2.75 16.05 7.3 21 10.11 4.95 2.81 11.25 6.77 14 8.81 2.75 2.05 7.27 6.12 10.04 9.07 2.77 2.94 6.44 7.38 8.16 9.85 1.72 2.47 4.28 6.97 5.69 10 1.4 3.03 3.57 9.1 4.82 13.5 2.01 7.07 2.26 10.15 2.19 26.5-0.06 14.37-0.57 21.29-2.29 31-1.21 6.87-3.11 15.42-4.21 19-1.1 3.58-3.58 10.55-5.52 15.5-1.93 4.95-4.58 11.25-5.89 14-1.3 2.75-3.61 7.7-5.13 11-1.52 3.3-4.77 8.93-7.22 12.5-2.45 3.57-7.19 9.13-10.55 12.34-3.35 3.21-9.69 8.78-14.09 12.36-5.35 4.37-12.3 8.63-21 12.88-7.15 3.49-17.72 7.9-23.5 9.8-5.78 1.9-15.22 4.41-21 5.58-5.78 1.16-14.78 2.54-20 3.05-5.22 0.52-52.59 0.95-105.25 0.96-52.66 0.02-95.96-0.31-96.21-0.72-0.25-0.41 0.42-4.57 1.5-9.25 1.07-4.68 5.33-22.68 9.46-40 4.12-17.33 8.06-33.3 10-39.5l77.5 0.33c66.64 0.28 78.48 0.11 84.5-1.2 3.85-0.84 9.47-2.38 12.5-3.42 3.03-1.04 8.43-3.49 12-5.45 3.58-1.96 8.7-5.97 11.4-8.91 2.7-2.94 5.99-7.82 7.33-10.85 1.33-3.03 2.89-8.88 3.47-13 0.74-5.3 0.73-9.11-0.04-13-0.75-3.8-2.22-6.89-4.76-10-2.02-2.47-5.3-5.7-7.28-7.16-1.99-1.46-8.12-4.43-13.62-6.6-5.5-2.18-16.07-5.85-23.5-8.16-7.43-2.3-22.05-7.04-32.5-10.52-10.45-3.49-24.63-8.75-31.52-11.7-6.88-2.95-15.18-6.94-18.43-8.86-3.26-1.92-10.26-7.78-15.56-13-5.3-5.22-11.38-12.2-13.51-15.5-2.13-3.3-5.53-9.83-7.55-14.5-2.02-4.67-4.63-11.88-5.8-16-1.65-5.85-2.11-10.31-2.12-20.25-0.01-7.01 0.66-17.81 1.47-24 0.82-6.19 2.38-15.53 3.47-20.75 1.1-5.22 3.61-14.45 5.59-20.5 1.97-6.05 5.92-15.72 8.77-21.5 2.86-5.77 7.69-13.87 10.75-18 3.06-4.12 8.91-10.91 13-15.07 4.09-4.17 9.47-8.98 11.94-10.7 2.47-1.72 7.65-5.04 11.5-7.36 3.85-2.33 9.93-5.68 13.5-7.44 3.57-1.77 10.32-4.38 15-5.81 4.68-1.44 12.1-3.24 16.5-4.02 4.4-0.78 14.07-1.92 21.5-2.54 7.43-0.61 15.75-1.25 18.5-1.42 2.75-0.16 44.6-0.36 93-0.43zm-1228.75 2.81c154.46-0.02 194.36 0.24 194.79 1.23 0.29 0.69-1.32 8.67-3.59 17.75-2.27 9.08-5.17 20.78-6.44 26-1.27 5.22-3.54 14.67-5.04 21-1.51 6.33-3.74 15.78-7.2 30.5l-48.38 0.75c-26.62 0.41-56.26 0.5-65.89 0.21-9.62-0.29-18.08-0.18-18.78 0.25-0.71 0.44-1.73 4.37-2.29 8.79-0.55 4.4-1.69 11.83-2.53 16.5-0.83 4.67-3.06 16.37-4.95 26-1.89 9.62-5.42 27.17-7.86 39-2.44 11.83-5.84 27.35-7.56 34.5-1.72 7.15-4.02 17.28-5.11 22.5-1.08 5.22-2.88 14.22-4 20-1.12 5.78-3.1 15.67-4.41 22-1.31 6.33-4.02 19.37-6.02 29-2.01 9.62-4.72 22.22-6.03 28-1.32 5.78-4.46 21.08-6.99 34-2.53 12.93-6.37 31.6-8.53 41.5-2.17 9.9-3.94 19.01-3.94 20.25 0 1.24-0.56 2.45-1.25 2.69-0.69 0.25-25.66 0.7-55.5 1-42.87 0.44-54.37 0.3-54.8-0.69-0.3-0.69 0.39-6.43 1.54-12.75 1.15-6.32 3.68-19.6 5.63-29.5 1.95-9.9 5.12-24.97 7.05-33.5 1.93-8.53 6.36-29.45 9.84-46.5 3.47-17.05 8.59-42.03 11.37-55.5 2.77-13.47 7.56-37.55 10.62-53.5 3.07-15.95 7.17-36.65 9.11-46 1.95-9.35 4.82-22.17 6.39-28.5 1.57-6.33 3.86-16.9 5.09-23.5 1.23-6.6 2-12.67 1.71-13.5q-0.52-1.5-6.91-2.26c-3.52-0.41-35.53-0.75-71.14-0.75-64.09 0.01-64.75-0.01-64.75-1.99 0-1.1 1.1-6.61 2.45-12.25 1.35-5.64 4.08-17.67 6.08-26.75 2-9.08 5.38-25.01 7.53-35.4 2.14-10.4 4.46-19.28 5.17-19.74 0.7-0.45 88.68-0.84 195.52-0.84zm1455.97 33.44c0.98 0.07 2.42 0.42 3.2 0.79 1.2 0.56 1.23 1.67 0.24 6.96-0.66 3.46-2.07 10.79-3.15 16.29-1.07 5.5-3.32 16.08-4.99 23.5-1.68 7.42-4.38 19.58-6.02 27-1.63 7.42-3.2 14.51-3.48 15.75-0.29 1.24 0.04 2.99 0.73 3.89 1.08 1.41 2.65 1.55 11.25 0.98 5.5-0.37 18.89-0.32 29.75 0.11 18.84 0.73 19.76 0.86 19.74 2.77-0.01 1.1-1.38 7.85-3.04 15-1.67 7.15-3.92 16.6-5 21-1.09 4.4-2.76 12.9-3.71 18.88-1.45 9.07-2.07 11-3.74 11.6-1.1 0.4-13.7 0.5-28 0.22-14.3-0.28-27.12-0.25-28.5 0.07-1.47 0.33-3 1.74-3.72 3.4-0.68 1.56-1.93 6.2-2.79 10.33-0.86 4.12-2.47 12.22-3.59 18-1.12 5.78-4.29 21.08-7.05 34-2.75 12.92-5.61 26.2-6.35 29.5-0.74 3.3-2.54 11.4-4.01 18-1.47 6.6-3.99 17.4-5.6 24-1.6 6.6-2.91 14.14-2.91 16.75 0.02 4.1 0.6 5.46 4.27 9.94 2.34 2.85 5.82 6.11 7.75 7.23 3.16 1.85 5.74 2.1 26.5 2.61 12.65 0.32 23.45 0.85 24 1.19 0.6 0.38 0.74 2.73 0.33 5.95-0.36 2.93-1.36 8.03-2.2 11.33-0.85 3.3-3.64 12.53-6.19 20.5-2.55 7.97-5.52 17.43-6.6 21-1.08 3.57-2.29 7.85-3.42 12.5l-38.96 0.76c-25.67 0.5-41.69 0.41-46.96-0.28-4.4-0.57-8.22-1.39-8.5-1.81-0.28-0.42-2.53-1.34-5-2.05-2.47-0.7-8.1-3.03-12.5-5.17-4.4-2.15-9.57-5.4-11.5-7.23-1.93-1.83-4.64-4.88-6.04-6.77-1.4-1.9-3.88-6.6-5.5-10.45-2.93-6.93-2.96-7.18-2.9-25.5 0.07-17.79 0.21-19.11 3.84-34.5 2.08-8.8 4.62-19.6 5.64-24 1.02-4.4 2.34-11.15 2.94-15 0.59-3.85 1.79-10.15 2.66-14 0.87-3.85 3.57-15.33 6-25.5 2.42-10.17 4.85-20.3 5.38-22.5 0.54-2.2 1.68-7.6 2.53-12 0.85-4.4 2.66-12.95 4.01-19 1.35-6.05 2.88-12.8 3.4-15 0.61-2.61 0.59-4.35-0.06-5-0.58-0.58-9.12-1.11-20.2-1.27-10.56-0.14-19.76-0.26-20.45-0.25-0.69 0.01-1.25-0.99-1.26-2.23 0-1.24 0.86-4.95 1.93-8.25 1.07-3.3 3.77-12.75 6-21 2.23-8.25 5.3-19.95 9.58-37l20.75-0.25c18.62-0.22 20.84-0.43 21.6-2 0.46-0.96 1.58-4.9 2.49-8.75 0.9-3.85 3.24-14.88 5.2-24.5 1.95-9.63 4.2-21.1 4.99-25.5 0.78-4.4 2.04-9.8 2.79-12 1.35-3.98 1.4-4.01 9.27-5.64 4.35-0.91 12.63-2.63 18.41-3.83 5.78-1.2 20.4-4.65 32.5-7.66 12.1-3.01 22.1-5.6 22.22-5.75 0.11-0.16 1.01-0.23 2-0.16zm260.28 94.36c4.68 0.18 14.57 1.66 22 3.29 7.43 1.63 15.75 3.79 18.5 4.81 2.75 1.02 7.51 3.37 10.57 5.22 3.07 1.85 6.89 4.49 8.5 5.86 1.61 1.38 4.5 4.53 6.42 7 1.91 2.48 4.7 7.42 6.19 11 1.49 3.58 3.41 10.55 4.27 15.5 0.87 4.95 1.57 10.69 1.56 12.75-0.01 2.06-0.7 8.36-1.53 14-0.84 5.64-4.23 23.97-7.53 40.75-3.31 16.78-9.17 45.8-13.03 64.5-3.87 18.7-7.93 38.28-9.04 43.5-1.1 5.22-3.5 13.78-5.32 19-1.82 5.22-4.67 12.2-6.33 15.5-1.67 3.3-4.39 7.8-6.06 10-1.67 2.2-5.66 7.2-8.85 11.11-3.2 3.91-8.52 8.93-11.82 11.17-3.3 2.23-9.37 5.6-13.5 7.49-4.12 1.89-11.32 4.66-16 6.17-4.68 1.5-12.1 3.66-16.5 4.81-7.4 1.92-11.79 2.12-58.5 2.69-27.78 0.35-55 0.27-60.5-0.17-5.5-0.44-13.37-1.53-17.5-2.42-4.12-0.89-10.65-2.85-14.5-4.37-3.85-1.51-10.82-5.01-15.5-7.77-4.68-2.77-9.86-6.54-11.52-8.37-1.66-1.84-4.03-4.8-5.25-6.59-1.23-1.79-3.29-5.61-4.58-8.5-1.29-2.89-2.89-7.72-3.55-10.75-0.65-3.03-1.45-10.45-1.77-16.5-0.42-8.02-0.13-13.44 1.06-20 0.9-4.95 2.75-14.17 4.11-20.5 1.35-6.33 4.26-20.72 6.46-32 2.2-11.28 6.68-32.88 9.95-48 3.26-15.13 7.31-32.45 8.99-38.5 1.68-6.05 4.58-15.28 6.45-20.5 1.86-5.22 4.35-11.86 5.52-14.75 1.17-2.89 4.77-9.19 8.01-14 3.23-4.81 8.07-10.88 10.75-13.49 2.68-2.61 8.25-6.85 12.37-9.42 4.13-2.57 10.43-6.13 14-7.91 3.57-1.78 10.55-4.38 15.5-5.77 4.95-1.4 11.93-3.1 15.5-3.78 4.28-0.81 23.04-1.43 55-1.81 26.68-0.31 52.32-0.43 57-0.25zm-1541.5 0.23l64 0.26c62.56 0.25 64.18 0.3 72 2.47 4.4 1.21 11.6 3.97 16 6.13 4.4 2.16 10.19 5.87 12.88 8.26 2.68 2.38 6.35 7.03 8.17 10.33 1.81 3.3 4.52 10.5 6.01 16 2.29 8.44 2.73 12.1 2.8 23.5 0.07 11.06-0.41 15.94-2.68 27-1.52 7.42-3.85 18.45-5.18 24.5-1.32 6.05-2.68 12.58-3.03 14.5-0.34 1.92-2.19 10.7-4.11 19.5-1.92 8.8-3.88 17.58-4.36 19.5-0.47 1.92-1.34 6.09-3 15l-89.75 0.02c-49.36 0-90.33 0.34-91.04 0.75-0.71 0.4-2.2 5.23-3.33 10.73-1.12 5.5-3.36 13.83-4.97 18.5-1.62 4.67-2.92 9.17-2.89 10 0.03 0.83 1.27 3.39 2.76 5.69 1.66 2.55 4.67 5.26 12.72 9.68l157 1.13-0.14 2.5c-0.08 1.37-1.5 8.8-3.15 16.5-1.66 7.7-4.61 20.75-6.55 29-1.95 8.25-4.14 17-6.16 23.89l-83.5-0.23c-69.96-0.18-85.36-0.47-95-1.81-7.17-0.99-15.08-2.88-21-5.03-5.22-1.89-11.97-4.85-15-6.58-3.03-1.72-8.01-5.63-11.09-8.69-3.62-3.6-6.86-8.18-9.22-13.05-2.01-4.13-4.38-11.1-5.27-15.5-0.9-4.4-1.65-12.05-1.66-17-0.02-5.03 0.93-14.29 2.14-21 1.2-6.6 3.03-15.6 4.07-20 1.05-4.4 3.52-15.88 5.5-25.5 1.98-9.63 4.92-23.35 6.52-30.5 1.6-7.15 3.63-16.6 4.49-21 0.87-4.4 2.68-14.3 4.04-22 1.35-7.7 3.41-17.83 4.57-22.5 1.16-4.67 4.13-14.35 6.61-21.5 2.48-7.15 5.19-14.35 6.03-16 0.83-1.65 3.37-5.43 5.64-8.4 2.27-2.97 7.96-8.76 12.63-12.85 4.68-4.1 11.43-9.2 15-11.34 3.57-2.14 10.1-5.3 14.5-7.02 4.4-1.72 12.05-4.19 17-5.49zm472.5-0.04l0.01 2.25c0 1.23-0.86 6.3-1.92 11.25-1.06 4.95-2.84 12.82-3.97 17.5-1.12 4.67-2.71 11.42-3.55 15-0.83 3.57-2.31 10.89-5.07 26.02l-46 0.06c-25.3 0.03-52.75 0.39-61 0.79-14.9 0.71-15.06 0.75-23.5 4.83-4.86 2.35-10.39 5.97-12.92 8.45-2.43 2.39-5.67 7.05-7.18 10.35-1.52 3.3-3.71 10.5-4.87 16-1.16 5.5-3 15.4-4.1 22-1.1 6.6-2.63 13.8-3.39 16-0.77 2.2-2.15 7.37-3.07 11.5-0.92 4.12-2.07 8.85-2.56 10.5-0.48 1.65-2.46 10.76-4.39 20.25-1.94 9.48-3.52 18.37-3.52 19.75 0 1.37 0.93 4.86 2.07 7.75 1.14 2.88 3.58 6.82 5.42 8.75 1.84 1.92 5.3 4.11 7.68 4.86 2.38 0.75 10.4 1.97 17.83 2.73 9.38 0.95 28 1.36 61 1.35 44.26-0.01 47.62 0.11 49.25 1.77 1.66 1.7 1.65 2.31-0.3 12.79-1.13 6.05-3.4 16.85-5.04 24-1.64 7.15-3.61 15.25-4.36 18-0.76 2.75-2.2 8.51-3.21 12.8-1.44 6.12-2.27 7.91-3.84 8.3-1.1 0.26-34.62 0.33-74.5 0.15-70.81-0.33-72.74-0.4-83-2.6-5.78-1.24-13.87-3.39-18-4.78-4.12-1.39-9.97-3.85-13-5.47-3.03-1.62-7.58-4.85-10.12-7.18-2.54-2.32-6.8-7.6-9.47-11.72-2.66-4.13-5.83-10.43-7.03-14-1.21-3.58-2.74-10.55-3.42-15.5-0.71-5.28-0.96-12.63-0.59-17.75 0.35-4.82 4.03-25.74 8.18-46.5 4.16-20.77 8.87-43.83 10.47-51.25 1.6-7.43 3.35-15.53 3.87-18 0.53-2.48 1.72-8.1 2.65-12.5 0.92-4.4 3.24-14.08 5.14-21.5 1.9-7.43 5.29-18 7.52-23.5 2.23-5.5 7-14.5 10.61-20 3.61-5.5 9.29-12.71 12.62-16.01 3.34-3.31 9.67-8.07 14.07-10.59 4.4-2.51 10.03-5.38 12.5-6.36 2.47-0.99 7.88-2.93 12-4.32 4.13-1.39 11.1-3.31 15.5-4.27 7.22-1.58 15.81-1.76 168.5-1.95zm1217.17 0.67c6.78 0.1 25.38 0.21 70.33 0.3l-0.75 4.76c-0.42 2.62-1.03 7.12-1.36 9.99-0.53 4.52-0.36 5.32 1.25 5.87 1.14 0.39 2.83-0.12 4.36-1.33 1.37-1.09 6.21-3.84 10.75-6.12 4.54-2.28 11.51-5.25 15.5-6.6 3.99-1.35 11.75-3.45 17.25-4.66 8-1.75 14.31-2.29 53-3.12l-0.67 4.37c-0.37 2.4-1.42 7.52-2.32 11.37-0.9 3.85-3.17 14.42-5.04 23.5-1.87 9.07-4.12 21.67-5.01 28-0.88 6.32-1.98 11.95-2.44 12.5-0.47 0.55-10.04 1.34-21.68 1.78-11.46 0.44-26.24 1.45-32.84 2.24-6.6 0.8-17.85 3.08-25 5.06-7.15 1.99-15.47 4.8-18.49 6.26-4.95 2.39-5.62 3.11-6.76 7.16-0.69 2.47-2.17 8.77-3.29 14-1.12 5.22-3.12 14.9-4.45 21.5-1.33 6.6-3.15 15.15-4.05 19-0.9 3.85-2.26 10.37-3.02 14.5-0.77 4.12-3 15.15-4.97 24.5-1.96 9.35-5.98 28.7-8.94 43-2.95 14.3-6.77 32.07-8.47 39.5-1.7 7.42-3.94 17.32-4.98 22-1.03 4.67-2.15 10.18-3.08 16h-44.5c-34.93 0-44.5-0.27-44.5-1.25 0-0.69 0.66-4.63 1.46-8.75 0.8-4.13 3.08-14.48 5.05-23 1.98-8.53 4.88-21.58 6.46-29 1.58-7.43 4.27-20.03 6-28 1.72-7.98 4.47-20.8 6.12-28.5 1.65-7.7 3.91-18.5 5.02-24 1.11-5.5 4.23-19.68 6.93-31.5 2.69-11.83 5.62-25.33 6.5-30 0.87-4.68 2.19-10.75 2.91-13.5 0.73-2.75 1.89-7.7 2.57-11 0.68-3.3 5.45-22.65 10.6-43 5.15-20.35 9.65-38.13 10.01-39.5 0.36-1.38 1.01-2.95 1.43-3.5 0.45-0.59 5.84-0.93 13.11-0.83zm380.33-0.01l10.5 2.69c5.77 1.48 12.75 3.44 15.5 4.35 2.75 0.91 7.93 3.33 11.5 5.38 3.57 2.05 8.09 5.46 10.04 7.57 1.95 2.12 4.74 5.87 6.19 8.35 1.45 2.47 3.31 6.52 4.11 9 0.81 2.47 1.97 6.86 2.57 9.75 0.6 2.88 1.09 10.31 1.09 16.5 0 7.35-0.86 16.26-2.47 25.75-1.35 7.97-3.34 18.1-4.41 22.5-1.08 4.4-2.47 10.7-3.11 14-0.63 3.3-1.55 7.57-2.05 9.5-0.5 1.92-2.51 11.6-4.47 21.5-1.96 9.9-3.89 20.63-4.28 23.85-0.39 3.23-1.05 6.04-1.46 6.25-0.41 0.22-40.55 0.51-89.2 0.65-57.32 0.16-88.79 0.6-89.42 1.25-0.54 0.55-2.8 7.97-5.02 16.5-2.23 8.52-4.62 17.41-5.33 19.75-1.13 3.74-1.06 4.65 0.51 7.5 0.98 1.78 3.67 4.82 10.17 10.25l79.27-0.25c74.64-0.24 79.32-0.15 80.14 1.5 0.55 1.1 0.16 4.87-1.05 10.25-1.05 4.67-3.45 15.02-5.34 23-1.88 7.97-4.1 17.65-4.93 21.5-0.83 3.85-2.13 9.02-4.27 16l-78.39 0.58c-43.11 0.31-83.11 0.2-88.89-0.27-5.78-0.46-12.97-1.31-16-1.89-3.03-0.57-8.65-1.97-12.5-3.11-3.85-1.13-10.59-3.92-14.97-6.19-4.72-2.44-10.03-6.21-13-9.23-2.77-2.81-6.48-7.99-8.26-11.5-1.78-3.52-4.15-9.32-5.27-12.89-1.71-5.44-2.03-9.12-2-22.5 0.02-8.8 0.44-17.8 0.93-20 0.49-2.2 3.22-15.7 6.07-30 2.85-14.3 8.03-38.83 11.51-54.5 3.49-15.68 7.54-34.35 9-41.5 1.45-7.15 3.51-16.6 4.57-21 1.06-4.4 2.78-10.7 3.83-14 1.04-3.3 2.98-8.7 4.3-12 1.32-3.3 3.95-8.25 5.84-11 1.89-2.75 6.14-7.88 9.44-11.39 3.31-3.52 8.48-8.07 11.51-10.12 3.03-2.05 10-6 15.5-8.76 5.5-2.77 12.03-5.71 14.5-6.54 2.47-0.83 7.88-2.19 12-3.02 4.13-0.84 12.45-2.01 18.5-2.61 6.05-0.6 12.8-1.25 15-1.45 2.2-0.2 23.8-0.27 92 0.05zm330.5 0.06c12.38 0.24 22.82 0.73 23.22 1.1 0.39 0.37-1.25 9.23-3.65 19.68-2.4 10.45-5.87 25.68-7.72 33.85-1.84 8.17-3.58 15.29-3.85 15.81-0.31 0.59-27.78 1.03-71.5 1.15-65.19 0.18-71.31 0.34-74.75 1.94-2.06 0.96-6 4-8.75 6.75-2.75 2.75-5.69 6.68-6.52 8.75-0.84 2.06-1.52 5.21-1.5 7 0.01 1.78 0.66 4.48 1.45 6 0.79 1.51 3.15 4.07 5.25 5.69 2.1 1.62 6.07 3.93 8.82 5.12 2.75 1.2 14 5.37 25 9.28 11 3.91 25.4 9.08 32 11.5 6.6 2.41 14.93 5.51 18.5 6.88 3.57 1.38 8.75 3.52 11.5 4.78 2.75 1.25 7.93 4.21 11.5 6.57 3.57 2.37 9.15 6.69 12.38 9.61 3.24 2.93 7.33 7.79 9.1 10.82 1.76 3.02 3.95 8.76 4.87 12.75 0.91 3.98 1.65 11.18 1.64 16 0 4.81-0.68 13.25-1.52 18.75-0.83 5.5-3.13 15.85-5.11 23-1.98 7.15-5.04 15.92-6.8 19.5-1.75 3.57-5.34 9.65-7.97 13.5-2.63 3.85-6.2 8.5-7.93 10.35-1.74 1.84-6.31 5.49-10.16 8.11-3.85 2.61-9.7 6-13 7.52-3.3 1.53-10.73 4.3-16.5 6.16-5.77 1.86-14.1 4.14-18.5 5.05-7.04 1.47-18.52 1.71-95.25 1.99-47.99 0.17-87.46-0.02-87.71-0.43-0.25-0.42 0.21-3.45 1.03-6.75 0.82-3.3 4.33-18.83 14.14-63h72.89c59.77 0 73.62-0.26 76.9-1.4 2.2-0.77 5.91-2.68 8.25-4.25 2.34-1.57 5.47-4.77 6.97-7.1q2.71-4.25 2.75-8.42c0.02-3.06-0.78-5.31-3.02-8.5-1.68-2.38-4.83-5.53-7-6.99-2.17-1.46-7.33-3.99-11.45-5.62-4.13-1.64-14.02-4.88-22-7.21-7.98-2.32-21.48-6.68-30-9.68-8.52-2.99-17.75-6.37-20.5-7.52-2.75-1.14-8.38-4.01-12.5-6.37-4.13-2.37-10.88-7.16-15-10.65-5.66-4.79-8.53-8.18-11.71-13.82-2.31-4.11-5.07-10.85-6.14-14.97-1.06-4.13-2.24-11.78-2.6-17-0.53-7.39-0.23-12.07 1.33-21 1.1-6.33 3.6-16.79 5.56-23.25 1.96-6.47 4.92-14.57 6.59-18 1.67-3.44 5.38-9.39 8.25-13.23 2.87-3.84 7.47-9.24 10.22-12.01 2.75-2.76 8.37-7.14 12.5-9.72 4.12-2.58 11.32-6.07 16-7.76 4.68-1.68 14.35-4.5 34.5-9.46l62.5-0.64c34.37-0.35 72.63-0.44 85-0.21zm-2379 64.32c-3.03 0.29-6.74 1.31-8.25 2.25-1.51 0.94-4.21 3.35-6 5.36-1.79 2.02-3.96 4.83-4.84 6.25-0.87 1.43-2.29 4.85-3.17 7.6-0.87 2.75-2.49 9.72-3.61 15.5-1.11 5.77-2.5 13.98-3.08 18.25-0.81 5.99-0.77 8.09 0.2 9.29 1.1 1.35 7.11 1.54 49 1.5 46.73-0.04 47.77-0.09 48.75-2.04 0.55-1.1 2.33-8.64 3.95-16.75 1.62-8.12 4.03-19.03 5.36-24.25 1.94-7.62 2.21-10.1 1.36-12.5-0.59-1.65-3-4.92-5.37-7.25l-4.3-4.25c-49.99 0.38-66.97 0.74-70 1.04zm1947 1.46c-2.9 0.88-6.49 3.25-10.11 6.68-4.15 3.92-6.03 6.62-7.21 10.32-0.87 2.75-2.09 7.92-2.7 11.5-0.62 3.57-2.49 11.9-4.16 18.5-1.68 6.6-3.11 13.12-3.18 14.5l-0.14 2.5c86.56 0.39 98.29 0.16 99.25-0.78 0.69-0.67 1.5-3.47 1.8-6.22 0.3-2.75 1.23-8.6 2.06-13 0.84-4.4 2.68-12.73 4.1-18.5 1.42-5.78 2.32-11.63 1.99-13-0.32-1.38-2.1-4.53-3.95-7-1.97-2.64-4.8-5.03-6.81-5.77-2.53-0.93-11.81-1.25-34.94-1.18-23.53 0.06-32.64 0.43-36 1.45zm-492.5 1.53c-3.85 0.39-11.16 0.77-16.25 0.84-7.27 0.1-10.37 0.62-14.5 2.43-2.89 1.26-7.28 4.13-9.75 6.37-2.47 2.23-5.25 5.81-6.18 7.94-0.92 2.14-3.04 10.41-4.7 18.39-1.67 7.97-4.66 23.05-6.63 33.5-1.98 10.45-4.25 22.15-5.06 26-0.8 3.85-3.04 14.42-4.97 23.5-1.93 9.07-4.39 20.55-5.47 25.5-1.08 4.95-1.95 10.8-1.95 13 0 2.2 0.84 5.8 1.86 8 1.01 2.2 3.14 5.21 4.72 6.69 1.59 1.49 4.57 3.4 6.63 4.25 3.07 1.27 8.61 1.56 30.5 1.56 21.75 0.01 27.78-0.29 32.25-1.61 3.03-0.89 7.3-2.53 9.5-3.66 2.2-1.12 5.8-3.54 8-5.37 2.2-1.83 4.76-4.58 5.69-6.1 0.93-1.52 2.56-5.46 3.62-8.76 1.07-3.3 3.37-14.33 5.11-24.5 1.74-10.18 4.51-24.8 6.15-32.5 1.64-7.7 3.68-16.93 4.54-20.5 0.85-3.58 3.54-16.63 5.97-29 2.43-12.38 4.42-24.42 4.42-26.75 0-2.34-0.84-5.94-1.87-8-1.03-2.07-3.62-5.09-5.75-6.72-2.13-1.64-5.45-3.53-7.38-4.21-2.21-0.78-8.65-1.2-17.5-1.12-7.7 0.06-17.15 0.43-21 0.83z"/>
</svg>